<svg id="Layer_1" data-name="Layer 1" xmlns="http://www.w3.org/2000/svg" viewBox="0 0 688 220.73"><defs><style>.cls-1{fill:#0d9488;}</style></defs><title>Icon</title><path class="cls-1" d="M618,793a17.14,17.14,0,0,1-15.31,15.71c-.57,0-1.15.06-1.78.06H474.8a17.25,17.25,0,0,1-17.2-17.2V708.38a17.21,17.21,0,0,1,17.2-17.15H600.93c.63,0,1.21.06,1.78.06a85.08,85.08,0,0,1,25.8-45.87,68.18,68.18,0,0,0-27.58-5.79H474.8A68.85,68.85,0,0,0,406,708.38v83.19a68.9,68.9,0,0,0,68.8,68.8H600.93a68.68,68.68,0,0,0,27.64-5.79,70.36,70.36,0,0,0,15.36-9.41A68.36,68.36,0,0,0,669.68,793Z" transform="translate(-406 -639.63)"/><path class="cls-1" d="M813.07,639.63H686.93a68,68,0,0,0-43,15.14c-1,.8-1.89,1.55-2.81,2.41a23.16,23.16,0,0,0-1.77,1.66,25.73,25.73,0,0,0-2.18,2.24,9.62,9.62,0,0,0-1.32,1.31c-1,1.15-2,2.36-3,3.56s-1.89,2.46-2.75,3.73a52.86,52.86,0,0,0-3.79,6.3,31.19,31.19,0,0,0-1.55,3,6.07,6.07,0,0,0-.4.81q-1,2.24-1.89,4.64a52.3,52.3,0,0,0-1.66,5.05,51.33,51.33,0,0,0-1.26,5.21,11.23,11.23,0,0,0-.29,1.49A61.57,61.57,0,0,0,618.19,707h51.66a17.09,17.09,0,0,1,17.08-15.77H813.07c.63,0,1.2.06,1.77.06a85,85,0,0,1,25.75-45.87A67,67,0,0,0,813.07,639.63ZM830.15,793a17.13,17.13,0,0,1-17.08,15.77H686.93c-.57,0-1.14-.06-1.72-.06a85.18,85.18,0,0,1-25.91,45.87,68.63,68.63,0,0,0,27.63,5.79H813.07a68.09,68.09,0,0,0,43-15.2c.68-.51,1.32-1.09,1.95-1.6l1.77-1.66c1.09-1,2.18-2.07,3.21-3.22a55.69,55.69,0,0,0,4.82-5.56c.63-.8,1.2-1.6,1.78-2.46a12.08,12.08,0,0,0,1.2-1.78c.69-1,1.38-2.12,2-3.21s1.14-2.18,1.72-3.27,1-2.18,1.55-3.27a.62.62,0,0,0,.17-.4,65.6,65.6,0,0,0,2.46-6.76c.4-1.21.75-2.41,1-3.67s.57-2.47.86-3.73a77.9,77.9,0,0,0,1.2-11.58Z" transform="translate(-406 -639.63)"/><path class="cls-1" d="M1025.2,639.63H899.07a66.88,66.88,0,0,0-27.52,5.79,65.64,65.64,0,0,0-15.48,9.35A68.39,68.39,0,0,0,830.32,707H882a17.08,17.08,0,0,1,15.31-15.71c.57,0,1.15-.06,1.78-.06H1025.2a17.17,17.17,0,0,1,17.2,17.15v83.19a17.21,17.21,0,0,1-17.2,17.2H899.07c-.58,0-1.15-.06-1.72-.06a85.26,85.26,0,0,1-25.92,45.87,68.68,68.68,0,0,0,27.64,5.79H1025.2a68.9,68.9,0,0,0,68.8-68.8V708.38A68.85,68.85,0,0,0,1025.2,639.63Z" transform="translate(-406 -639.63)"/><path class="cls-1" d="M695.22,775.78H592.7a25.8,25.8,0,0,1,0-51.6H695.22a25.8,25.8,0,0,1,0,51.6Z" transform="translate(-406 -639.63)"/><path class="cls-1" d="M907.35,775.78H804.83a25.8,25.8,0,0,1,0-51.6H907.35a25.8,25.8,0,0,1,0,51.6Z" transform="translate(-406 -639.63)"/></svg>